<?xml version="1.0" encoding="UTF-8"?>
<svg width="250px" height="66px" viewBox="0 0 250 66" version="1.1" xmlns="http://www.w3.org/2000/svg" xmlns:xlink="http://www.w3.org/1999/xlink">
    <!-- Generator: Sketch 49.2 (51160) - http://www.bohemiancoding.com/sketch -->
    <title>lexpress</title>
    <desc>Created with Sketch.</desc>
    <defs></defs>
    <g id="lexpress" stroke="none" stroke-width="1" fill="none" fill-rule="evenodd">
        <g transform="translate(49.000000, 9.000000)" fill-rule="nonzero">
            <polygon id="Shape" fill="#EA212D" points="9.019 0.833 9.019 17.514 21.429 0.833"></polygon>
            <path d="M34.193,26.264 L34.193,17.43 C34.193,11.013 30.134,7.361 24.125,7.361 L23.891,7.361 C17.885,7.361 13.821,11.013 13.821,17.43 L13.821,31.739 C13.821,38.156 18.002,41.806 23.951,41.806 L24.185,41.806 C30.248,41.806 34.193,38.275 34.193,31.677 L34.193,29.087 L27.013,29.087 L27.013,31.737 C27.013,34.268 25.893,35.326 24.363,35.326 L24.185,35.326 C22.595,35.326 21.301,34.268 21.301,31.737 L21.301,26.262 L34.193,26.262 L34.193,26.264 Z M21.302,17.373 C21.302,14.779 22.538,13.777 24.066,13.777 L24.303,13.777 C25.777,13.777 27.013,14.779 27.013,17.313 L27.013,21.141 L21.302,21.141 L21.302,17.373 Z" id="Shape" fill="#333333"></path>
            <polygon id="Shape" fill="#333333" points="54.861 7.833 47.267 7.833 45.5 13.837 43.972 19.372 42.438 13.837 40.671 7.833 32.782 7.833 38.377 23.553 32.488 41.335 40.319 41.335 43.852 28.383 45.796 35.509 47.442 41.335 55.276 41.335 49.387 23.67"></polygon>
            <path d="M67.756,7.833 L55.51,7.833 L55.51,49.285 L63.047,49.285 L63.047,41.335 L67.756,41.335 C73.645,41.335 76.118,37.391 76.118,31.03 L76.118,18.076 C76.118,11.718 73.646,7.833 67.756,7.833 Z M68.639,31.268 C68.639,33.979 67.876,35.212 65.932,35.212 L63.047,35.212 L63.047,13.957 L65.932,13.957 C67.876,13.957 68.639,15.194 68.639,17.841 L68.639,31.268 Z" id="Shape" fill="#333333"></path>
            <path d="M145.245,22.199 L140.359,19.666 C139.121,19.018 138.472,18.312 138.472,16.958 L138.472,16.43 C138.472,14.485 139.474,13.482 140.945,13.482 L141.179,13.482 C142.65,13.482 143.769,14.605 143.769,16.958 L143.769,18.783 L150.896,18.783 L150.896,16.838 C150.896,10.658 146.89,7.359 141.121,7.359 L140.827,7.359 C135.117,7.359 131.172,10.657 131.172,16.663 L131.172,17.252 C131.172,22.315 133.35,24.143 137.176,26.143 L141.947,28.618 C143.301,29.325 143.889,30.147 143.889,31.679 L143.889,32.741 C143.889,34.74 142.651,35.744 141.242,35.744 L141.061,35.744 C139.59,35.744 138.354,34.682 138.354,32.561 L138.354,30.031 L131.233,30.031 L131.233,32.328 C131.233,38.512 135.294,41.807 141.18,41.807 L141.417,41.807 C147.188,41.807 151.189,38.511 151.189,32.444 L151.189,31.268 C151.189,25.908 149.128,24.201 145.245,22.199 Z" id="Shape" fill="#333333"></path>
            <path d="M124.93,22.199 L120.043,19.666 C118.807,19.018 118.159,18.312 118.159,16.958 L118.159,16.43 C118.159,14.485 119.158,13.482 120.632,13.482 L120.866,13.482 C122.337,13.482 123.46,14.605 123.46,16.958 L123.46,18.783 L130.582,18.783 L130.582,16.838 C130.582,10.658 126.578,7.359 120.807,7.359 L120.512,7.359 C114.804,7.359 110.86,10.657 110.86,16.663 L110.86,17.252 C110.86,22.316 113.036,24.144 116.862,26.143 L121.633,28.618 C122.987,29.325 123.575,30.147 123.575,31.679 L123.575,32.741 C123.575,34.74 122.339,35.744 120.929,35.744 L120.749,35.744 C119.278,35.744 118.042,34.682 118.042,32.561 L118.042,30.031 L110.917,30.031 L110.917,32.328 C110.917,38.512 114.978,41.807 120.867,41.807 L121.1,41.807 C126.871,41.807 130.875,38.511 130.875,32.444 L130.875,31.268 C130.876,25.908 128.812,24.201 124.93,22.199 Z" id="Shape" fill="#333333"></path>
            <path d="M110.327,26.264 L110.327,17.43 C110.327,11.013 106.265,7.361 100.257,7.361 L100.024,7.361 C94.02,7.361 89.959,11.013 89.959,17.43 L89.959,31.739 C89.959,38.156 94.136,41.806 100.084,41.806 L100.319,41.806 C106.381,41.806 110.329,38.275 110.329,31.677 L110.329,29.087 L103.147,29.087 L103.147,31.737 C103.147,34.268 102.026,35.326 100.496,35.326 L100.319,35.326 C98.727,35.326 97.432,34.268 97.432,31.737 L97.432,26.262 L110.327,26.262 L110.327,26.264 Z M97.432,17.373 C97.432,14.779 98.669,13.777 100.201,13.777 L100.44,13.777 C101.909,13.777 103.147,14.779 103.147,17.313 L103.147,21.141 L97.432,21.141 L97.432,17.373 Z" id="Shape" fill="#333333"></path>
            <path d="M90.189,7.833 L85.536,7.833 C79.536,7.833 77.061,11.363 77.061,17.547 L77.061,41.335 L84.595,41.335 L84.595,18.195 C84.595,15.488 85.535,14.131 87.716,14.131 L90.19,14.131 L90.19,7.833 L90.189,7.833 Z" id="Shape" fill="#333333"></path>
            <rect id="Rectangle-path" fill="#333333" x="0.066" y="0.833" width="7.809" height="40.501"></rect>
        </g>
    </g>
</svg>